<?xml version="1.0" standalone="no"?>
<!DOCTYPE svg PUBLIC "-//W3C//DTD SVG 20010904//EN"
 "http://www.w3.org/TR/2001/REC-SVG-20010904/DTD/svg10.dtd">
<svg version="1.0" xmlns="http://www.w3.org/2000/svg"
 width="575.000000pt" height="575.000000pt" viewBox="0 0 575.000000 575.000000"
 preserveAspectRatio="xMidYMid meet">
<metadata>
Created by potrace 1.11, written by Peter Selinger 2001-2013
</metadata>
<g transform="translate(0.000000,575.000000) scale(0.100000,-0.100000)"
fill="#000000" stroke="none">
<path d="M2525 4686 c-193 -38 -358 -140 -457 -284 -40 -57 -91 -170 -117
-257 -12 -38 -124 -558 -249 -1154 l-228 -1083 -123 -44 c-243 -86 -371 -166
-450 -285 -62 -92 -84 -178 -79 -297 7 -139 32 -198 122 -287 118 -117 225
-159 396 -159 151 1 282 43 403 130 l49 35 43 -40 c90 -83 212 -124 370 -125
115 0 196 18 300 68 184 87 304 234 379 463 15 45 125 542 245 1105 l218 1023
175 3 175 2 22 113 c12 61 24 120 27 130 5 16 -8 17 -171 17 l-175 0 5 23 c3
12 21 99 40 192 44 210 59 258 98 301 59 68 110 77 270 48 57 -11 87 -21 87
-29 0 -8 -87 -427 -194 -932 -107 -505 -199 -961 -205 -1013 -23 -212 23 -376
137 -482 174 -163 451 -158 743 13 127 74 231 195 319 369 41 81 120 279 120
300 0 6 -54 10 -139 10 l-139 0 -22 -66 c-58 -174 -197 -286 -320 -259 -43 9
-53 40 -41 124 7 51 405 1947 427 2037 5 19 -8 26 -133 74 -216 82 -470 166
-574 188 -319 69 -555 49 -735 -64 l-51 -32 -29 19 c-56 39 -140 77 -204 93
-90 23 -249 29 -335 12z m355 -391 c0 -1 -11 -27 -24 -56 -32 -73 -52 -146
-90 -324 l-33 -150 -96 -3 c-89 -2 -97 -1 -97 16 0 33 51 272 70 326 39 115
104 182 187 195 42 6 83 4 83 -4z m-204 -812 c-3 -10 -71 -328 -152 -708 -80
-379 -149 -693 -152 -697 -7 -7 -192 -41 -197 -36 -1 2 62 307 141 678 79 371
149 699 155 728 l10 52 100 0 c91 0 100 -2 95 -17z m-350 -1650 c-3 -10 -21
-97 -42 -193 -42 -202 -72 -291 -116 -345 -52 -63 -124 -78 -164 -34 -16 17
-15 24 14 112 16 51 47 170 67 265 l38 171 56 12 c31 6 72 15 91 19 55 13 62
12 56 -7z m-886 -198 c0 -3 -11 -53 -25 -112 -38 -162 -89 -233 -164 -233 -52
0 -81 29 -81 82 0 88 57 158 190 232 63 35 80 41 80 31z"/>
</g>
</svg>
